<?xml version="1.0" encoding="UTF-8" standalone="no"?>
<!-- Created with Inkscape (http://www.inkscape.org/) -->

<svg
   width="205mm"
   height="52.639999mm"
   viewBox="0 0 205 52.640001"
   version="1.1"
   id="svg5"
   xml:space="preserve"
   inkscape:version="1.4.3 (fcd0343856, 2026-01-01)"
   sodipodi:docname="logo-torch-blue-wide-fixed.svg"
   xmlns:inkscape="http://www.inkscape.org/namespaces/inkscape"
   xmlns:sodipodi="http://sodipodi.sourceforge.net/DTD/sodipodi-0.dtd"
   xmlns="http://www.w3.org/2000/svg"
   xmlns:svg="http://www.w3.org/2000/svg"><sodipodi:namedview
     id="namedview7"
     pagecolor="#ffffff"
     bordercolor="#000000"
     borderopacity="0.25"
     inkscape:showpageshadow="2"
     inkscape:pageopacity="0.0"
     inkscape:pagecheckerboard="0"
     inkscape:deskcolor="#d1d1d1"
     inkscape:document-units="mm"
     showgrid="false"
     inkscape:zoom="1.2534629"
     inkscape:cx="292.78888"
     inkscape:cy="198.25078"
     inkscape:window-width="1866"
     inkscape:window-height="1016"
     inkscape:window-x="1547"
     inkscape:window-y="1467"
     inkscape:window-maximized="1"
     inkscape:current-layer="layer2"
     showguides="true"><sodipodi:guide
       position="51.120676,26.146795"
       orientation="1,0"
       id="guide6"
       inkscape:locked="false" /><sodipodi:guide
       position="85.066011,3.2468337"
       orientation="0,-1"
       id="guide7"
       inkscape:locked="false" /></sodipodi:namedview><defs
     id="defs2"><rect
       x="0"
       y="0.28206131"
       width="877.60754"
       height="197.25481"
       id="rect4" /><rect
       x="-211.82805"
       y="0"
       width="212.39217"
       height="247.93188"
       id="rect3" /><rect
       x="-166.69824"
       y="4.5129809"
       width="28.206131"
       height="18.051924"
       id="rect2" /><rect
       x="-168.95473"
       y="-0.28206131"
       width="169.23679"
       height="199.13528"
       id="rect1" /></defs><g
     inkscape:label="Layer 1"
     inkscape:groupmode="layer"
     id="layer1"
     transform="translate(-19.74211,-210.87346)"><path
       style="fill:#7df9ff;fill-opacity:1;stroke-width:2.02874;stroke-miterlimit:3.7"
       d="m 219.09963,249.83694 c 1.3341,-0.82709 2.82794,-1.8264 3.05316,-1.97132 1.88051,-1.16894 1.79517,-1.49638 1.71431,-4.65524 -1.7947,1.69649 -1.18092,1.61252 -2.55036,2.4548 -2.57227,1.58208 -1.89599,0.87694 -4.26657,2.67304 -1.52628,1.74916 -1.19767,2.60104 -1.20912,4.93286 1.91961,-2.50544 1.89546,-2.55386 3.25858,-3.43414 z"
       id="path11293"
       inkscape:export-filename="path2033.png"
       inkscape:export-xdpi="96"
       inkscape:export-ydpi="96"
       sodipodi:nodetypes="cccsccc" /><path
       style="fill:#002864;fill-opacity:1;stroke-width:2.02874;stroke-miterlimit:3.7"
       d="m 204.7572,254.81125 c -0.86696,-2.91957 -1.27376,-4.82896 -0.051,-8.17155 1.94758,-3.96079 4.59193,-6.71876 9.78262,-10.20294 4.51879,-3.36932 7.64827,-6.31666 7.88019,-10.95923 0.3469,-3.83673 -1.75978,-7.47951 -4.23414,-10.00459 -1.54115,-1.53237 -5.31639,-4.71031 -5.46044,-4.5965 -0.0533,0.0421 0.2837,0.67324 0.74889,1.40249 4.80593,10.2663 6.04467,14.10611 -5.51517,21.94976 -6.62586,4.81581 -7.72081,7.28547 -7.71958,11.56584 8e-4,2.41162 0.47352,3.90166 1.954,6.15784 1.05297,1.60468 2.84838,3.56784 2.61458,2.85888 z"
       id="path11295"
       sodipodi:nodetypes="cccccscccsc" /><path
       style="fill:#14c8ff;fill-opacity:1;stroke-width:2.02874;stroke-miterlimit:3.7"
       d="m 210.92426,248.76161 c 0.72681,-1.26137 0.67455,-1.42197 5.22951,-4.95691 5.26579,-3.49578 7.51787,-3.6653 7.52232,-10.29674 -3.22365,4.79939 -5.87137,6.1515 -8.4023,7.5333 -4.75445,2.59633 -6.62691,4.64808 -6.92026,7.46321 -0.0938,2.20824 0.40846,3.9101 1.4464,5.67561 0.24596,-1.86719 0.3817,-4.11426 1.12433,-5.41847 z"
       id="path11297"
       sodipodi:nodetypes="ccccccc" /><ellipse
       style="fill:#002864;fill-opacity:1;stroke-width:2.64583;stroke-miterlimit:3.7"
       id="ellipse11299"
       cx="210.17152"
       cy="260.32684"
       rx="3.0061173"
       ry="3.1829476" /></g><g
     inkscape:groupmode="layer"
     id="layer2"
     inkscape:label="Text"><path
       style="font-weight:bold;font-size:133.333px;font-family:Arial;-inkscape-font-specification:'Arial Bold';text-align:end;white-space:pre;shape-padding:0.79779;fill:#002864;fill-opacity:1"
       d="m 252.33298,122.35028 q -8.0729,0 -12.43487,-4.36197 -4.36197,-4.42707 -4.36197,-13.34632 V 63.105639 h -8.91924 v -12.36976 h 9.8307 l 5.72915,-16.536416 h 11.45831 v 16.536416 h 13.34632 v 12.36976 h -13.34632 v 36.588449 q 0,5.143212 1.95312,7.617172 1.95312,2.40884 6.05467,2.40884 2.14843,0 6.11977,-0.91145 v 11.32809 q -6.77081,2.21354 -15.42964,2.21354 z m 93.29403,-36.45824 q 0,17.12235 -9.50519,26.88795 -9.50518,9.7005 -26.30201,9.7005 -16.47131,0 -25.84629,-9.7656 -9.37498,-9.7656 -9.37498,-26.82285 0,-16.992145 9.37498,-26.692641 9.37498,-9.7656 26.23691,-9.7656 17.25256,0 26.30202,9.44008 9.11456,9.374976 9.11456,27.018161 z m -19.14058,0 q 0,-12.565072 -4.10155,-18.229121 -4.10155,-5.664048 -11.91403,-5.664048 -16.66663,0 -16.66663,23.893169 0,11.783824 4.03645,17.9687 4.10155,6.11978 11.78383,6.11978 16.86193,0 16.86193,-24.08848 z m 33.65878,35.28637 V 67.272295 q 0,-5.794256 -0.19531,-9.635392 -0.13021,-3.90624 -0.32552,-6.901024 h 17.44787 q 0.19531,1.171872 0.52083,7.16144 0.32552,5.924464 0.32552,7.877584 h 0.26042 q 2.66926,-7.421856 4.75259,-10.41664 2.08333,-3.059888 4.9479,-4.492176 2.86458,-1.497392 7.16144,-1.497392 3.51562,0 5.66405,0.97656 v 15.29944 q -4.42707,-0.97656 -7.81248,-0.97656 -6.83592,0 -10.67706,5.53384 -3.77603,5.533841 -3.77603,16.406209 v 34.570226 z m 81.24978,1.30208 q -16.01558,0 -24.73952,-9.50519 -8.72394,-9.57028 -8.72394,-26.627532 0,-17.447873 8.78904,-27.148369 8.78904,-9.7656 24.93484,-9.7656 12.43486,0 20.57286,6.249984 8.138,6.249984 10.22133,17.252561 L 454.02517,73.8478 q -0.78125,-5.403633 -3.90624,-8.593729 -3.125,-3.2552 -8.85415,-3.2552 -14.12757,0 -14.12757,23.632753 0,24.348896 14.38799,24.348896 5.20832,0 8.72393,-3.2552 3.51562,-3.3203 4.36197,-9.830704 l 18.35933,0.846352 q -0.97656,7.226542 -5.20832,12.890592 -4.16666,5.66405 -11.00258,8.78904 -6.83592,3.05989 -15.36454,3.05989 z m 62.82538,-57.682147 q 3.71092,-8.072896 9.30987,-11.71872 5.59894,-3.645824 13.34632,-3.645824 11.19789,0 17.18745,6.901024 5.98957,6.901024 5.98957,20.182241 V 121.17841 H 531.82446 V 81.725384 q 0,-18.554641 -12.56507,-18.554641 -6.64061,0 -10.74216,5.729152 -4.03645,5.664049 -4.03645,14.583297 V 121.17841 H 486.18656 V 24.564071 h 18.29422 v 26.36712 q 0,7.096336 -0.52083,13.867152 z m 59.30974,29.752529 V 78.665496 h 33.85408 v 15.885376 z m 115.16898,-8.854144 q 0,17.447872 -7.03123,27.148372 -6.96613,9.63539 -19.98693,9.63539 -7.48696,0 -12.95569,-3.2552 -5.46874,-3.2552 -8.39842,-9.37498 h -0.13021 q 0,2.27864 -0.32552,6.24999 -0.26041,3.97134 -0.58593,5.07811 h -17.77339 q 0.52083,-6.05467 0.52083,-16.08069 V 24.564071 h 18.29422 v 26.953056 l -0.26041,11.458304 h 0.26041 q 6.18488,-13.541632 22.52599,-13.541632 12.49996,0 19.14057,9.505184 6.70571,9.44008 6.70571,26.757745 z m -19.07547,0 q 0,-11.979136 -3.51561,-17.773393 -3.51562,-5.794256 -10.87237,-5.794256 -7.42186,0 -11.3281,6.249984 -3.84113,6.184881 -3.84113,17.903601 0,11.197888 3.77603,17.447876 3.84113,6.24998 11.26299,6.24998 14.51819,0 14.51819,-24.283792 z M 693.4777,121.17841 V 24.564071 h 18.29422 v 96.614339 z m 54.29675,-70.442531 v 39.518129 q 0,18.554642 12.49996,18.554642 6.64061,0 10.67706,-5.66405 4.10155,-5.729152 4.10155,-14.6484 V 50.735879 h 18.29423 v 54.687361 q 0,8.98435 0.52083,15.75517 h -17.44787 q -0.78125,-9.37498 -0.78125,-13.99736 h -0.32552 q -3.64583,8.00779 -9.30987,11.65361 -5.59895,3.64583 -13.34632,3.64583 -11.19789,0 -17.18746,-6.83592 -5.98957,-6.90103 -5.98957,-20.182242 V 50.735879 Z m 93.03358,71.744611 q -15.88538,0 -24.414,-9.37498 -8.52863,-9.44008 -8.52863,-27.473886 0,-17.447873 8.65883,-26.822849 8.65884,-9.374976 24.54421,-9.374976 15.16923,0 23.17703,10.09112 8.00779,10.026016 8.00779,29.427009 v 0.520832 h -45.18218 q 0,10.286432 3.77603,15.55986 3.84114,5.20832 10.87237,5.20832 9.7005,0 12.23955,-8.39842 l 17.25256,1.49739 q -7.48696,19.14058 -30.40356,19.14058 z m 0,-61.523283 q -6.4453,0 -9.96092,4.492176 -3.45051,4.492176 -3.64582,12.565073 h 27.34368 q -0.52083,-8.528625 -4.10155,-12.760385 -3.58072,-4.296864 -9.63539,-4.296864 z"
       id="text3"
       transform="matrix(0.26458333,0,0,0.26458333,-59.368571,16.886622)"
       aria-label="torch-blue&#10;" /></g></svg>
