<?xml version="1.0" encoding="UTF-8" standalone="no"?>
<!-- Created with Inkscape (http://www.inkscape.org/) -->

<svg
   width="85.171997mm"
   height="52.639999mm"
   viewBox="0 0 85.172001 52.640001"
   version="1.1"
   id="svg5"
   xml:space="preserve"
   inkscape:version="1.4.3 (fcd0343856, 2026-01-01)"
   sodipodi:docname="logo-torch-blue-compact-fixed_blue.svg"
   xmlns:inkscape="http://www.inkscape.org/namespaces/inkscape"
   xmlns:sodipodi="http://sodipodi.sourceforge.net/DTD/sodipodi-0.dtd"
   xmlns="http://www.w3.org/2000/svg"
   xmlns:svg="http://www.w3.org/2000/svg"><sodipodi:namedview
     id="namedview7"
     pagecolor="#ffffff"
     bordercolor="#000000"
     borderopacity="0.25"
     inkscape:showpageshadow="2"
     inkscape:pageopacity="0.0"
     inkscape:pagecheckerboard="0"
     inkscape:deskcolor="#d1d1d1"
     inkscape:document-units="mm"
     showgrid="false"
     inkscape:zoom="3.5453285"
     inkscape:cx="72.207695"
     inkscape:cy="94.067447"
     inkscape:window-width="1866"
     inkscape:window-height="1016"
     inkscape:window-x="1547"
     inkscape:window-y="1467"
     inkscape:window-maximized="1"
     inkscape:current-layer="layer2"
     showguides="true"><sodipodi:guide
       position="58.285033,63.386537"
       orientation="1,0"
       id="guide6"
       inkscape:locked="false" /></sodipodi:namedview><defs
     id="defs2"><rect
       x="0"
       y="0.28206131"
       width="215.7769"
       height="198.28909"
       id="rect4" /><rect
       x="-211.82805"
       y="0"
       width="212.39217"
       height="247.93188"
       id="rect3" /><rect
       x="-166.69824"
       y="4.5129809"
       width="28.206131"
       height="18.051924"
       id="rect2" /><rect
       x="-168.95473"
       y="-0.28206131"
       width="169.23679"
       height="199.13528"
       id="rect1" /></defs><g
     inkscape:label="Layer 1"
     inkscape:groupmode="layer"
     id="layer1"
     transform="translate(-19.74211,-210.87346)"><path
       style="fill:#7df9ff;fill-opacity:1;stroke-width:2.02874;stroke-miterlimit:3.7"
       d="m 100.03638,249.83694 c 1.3341,-0.82709 2.82794,-1.8264 3.05316,-1.97132 1.88051,-1.16894 1.79517,-1.49638 1.71431,-4.65524 -1.7947,1.69649 -1.18092,1.61252 -2.55036,2.4548 -2.572267,1.58208 -1.89599,0.87694 -4.266558,2.67304 -1.526271,1.74916 -1.19766,2.60104 -1.209109,4.93286 1.919596,-2.50544 1.895446,-2.55386 3.258557,-3.43414 z"
       id="path11293"
       inkscape:export-filename="path2033.png"
       inkscape:export-xdpi="96"
       inkscape:export-ydpi="96"
       sodipodi:nodetypes="cccsccc" /><path
       style="fill:#002864;fill-opacity:1;stroke-width:2.02874;stroke-miterlimit:3.7"
       d="m 85.694033,254.81125 c -0.866953,-2.91957 -1.273749,-4.82896 -0.05095,-8.17155 1.94757,-3.96079 4.5919,-6.71876 9.78256,-10.20294 4.51877,-3.36932 7.648247,-6.31666 7.880167,-10.95923 0.3469,-3.83673 -1.75978,-7.47951 -4.234134,-10.00459 -1.541143,-1.53237 -5.316363,-4.71031 -5.460403,-4.5965 -0.0533,0.0421 0.28369,0.67324 0.74888,1.40249 4.805903,10.2663 6.044637,14.10611 -5.515138,21.94976 -6.625827,4.81581 -7.720762,7.28547 -7.719532,11.56584 8e-4,2.41162 0.47351,3.90166 1.95398,6.15784 1.05297,1.60468 2.84837,3.56784 2.61457,2.85888 z"
       id="path11295"
       sodipodi:nodetypes="cccccscccsc" /><path
       style="fill:#14c8ff;fill-opacity:1;stroke-width:2.02874;stroke-miterlimit:3.7"
       d="m 91.861062,248.76161 c 0.7268,-1.26137 0.674543,-1.42197 5.229473,-4.95691 5.265775,-3.49578 7.517855,-3.6653 7.522305,-10.29674 -3.22365,4.79939 -5.871361,6.1515 -8.402277,7.5333 -4.75442,2.59633 -6.62687,4.64808 -6.92022,7.46321 -0.09381,2.20824 0.408456,3.9101 1.44639,5.67561 0.245966,-1.86719 0.381701,-4.11426 1.124329,-5.41847 z"
       id="path11297"
       sodipodi:nodetypes="ccccccc" /><ellipse
       style="fill:#002864;fill-opacity:1;stroke-width:2.64583;stroke-miterlimit:3.7"
       id="ellipse11299"
       cx="91.110146"
       cy="260.32684"
       rx="3.0061173"
       ry="3.1829476" /></g><g
     inkscape:groupmode="layer"
     id="layer2"
     inkscape:label="Text"><path
       style="font-weight:bold;font-size:23.9889px;font-family:FreeSans;-inkscape-font-specification:'FreeSans Bold';text-align:end;text-anchor:end;fill:#002864;stroke-width:0.264583"
       d="m 17.645593,33.574937 q 2.326924,0 3.886202,1.943101 1.559279,1.919112 1.559279,4.917724 0,2.926646 -1.559279,4.893735 -1.559278,1.96709 -3.886202,1.96709 -2.374901,0 -3.574346,-1.871134 v 1.31939 H 10.712802 V 29.256935 h 3.358445 v 6.213125 q 1.199445,-1.895123 3.574346,-1.895123 z m 1.295401,3.958168 q -0.791634,-1.151467 -2.039056,-1.151467 -1.247423,0 -2.039057,1.127478 -0.791634,1.10349 -0.791634,2.878668 0,1.847145 0.767645,2.974624 0.791634,1.127478 2.063046,1.127478 1.247422,0 2.039056,-1.127478 0.791634,-1.127479 0.791634,-2.902657 0,-1.799168 -0.791634,-2.926646 z m 10.027321,-8.27617 V 46.744843 H 25.60987 V 29.256935 Z m 14.70516,17.487908 h -3.358446 v -1.53529 q -1.391356,2.087034 -3.886202,2.087034 -2.063045,0 -3.214512,-1.175456 -1.127479,-1.175456 -1.127479,-3.310468 v -9.019826 h 3.358446 v 8.324148 q 0,2.326923 2.159001,2.326923 1.223434,0 1.96709,-0.695678 0.743656,-0.695678 0.743656,-1.847145 v -8.108248 h 3.358446 z m 8.516037,-13.169906 q 0.839612,0 1.631245,0.191911 0.791634,0.191911 1.607257,0.695678 0.839611,0.503767 1.439334,1.295401 0.623711,0.767644 1.007533,2.063045 0.383823,1.271412 0.383823,2.926646 0,0.287867 -0.02399,0.575733 h -8.683982 q 0.02399,0.743656 0.119945,1.295401 0.119944,0.527756 0.383822,1.055511 0.287867,0.503767 0.815623,0.791634 0.551744,0.263878 1.367367,0.263878 1.919112,0 2.566812,-1.631245 h 3.310468 q -0.551744,1.919112 -2.182989,3.070579 -1.631246,1.127478 -3.814235,1.127478 -2.758724,0 -4.341991,-1.775178 -1.583268,-1.799168 -1.583268,-4.917725 0,-3.26249 1.607257,-5.133624 1.607256,-1.895123 4.389968,-1.895123 z m 2.566812,5.517447 q -0.119944,-1.415345 -0.791633,-2.18299 -0.647701,-0.767645 -1.823157,-0.767645 -2.206978,0 -2.542823,2.950635 z"
       id="text6"
       aria-label="blue" /><path
       style="font-weight:bold;font-size:23.9889px;font-family:'Liberation Sans';-inkscape-font-specification:'Liberation Sans Bold';text-align:end;text-anchor:end;fill:#002864;stroke-width:0.264583"
       d="m 4.6945504,23.074293 q -1.4524529,0 -2.237246,-0.784793 Q 1.6725113,21.492993 1.6725113,19.888267 V 12.415163 H 0.06778518 V 10.18963 H 1.836498 L 2.867271,7.2144444 H 4.928817 V 10.18963 h 2.4012326 v 2.225533 H 4.928817 v 6.582891 q 0,0.925353 0.3513999,1.37046 0.3513999,0.433393 1.0893397,0.433393 0.3865398,0 1.1010529,-0.163987 v 2.03812 Q 6.2524233,23.074293 4.6945504,23.074293 Z M 21.479752,16.514828 q 0,3.080606 -1.710146,4.837605 -1.710146,1.745287 -4.732185,1.745287 -2.963473,0 -4.650192,-1.757 -1.6867196,-1.756999 -1.6867196,-4.825892 0,-3.057179 1.6867196,-4.802465 1.686719,-1.7569994 4.720472,-1.7569994 3.104032,0 4.732185,1.6984324 1.639866,1.68672 1.639866,4.861032 z m -3.443719,0 q 0,-2.260672 -0.73794,-3.279732 -0.737939,-1.01906 -2.143539,-1.01906 -2.998612,0 -2.998612,4.298792 0,2.120113 0.726226,3.232879 0.73794,1.101053 2.120113,1.101053 3.033752,0 3.033752,-4.333932 z m 6.055792,6.348625 v -9.698637 q 0,-1.042486 -0.03514,-1.733573 -0.02343,-0.7028 -0.05857,-1.241613 h 3.139172 q 0.03514,0.21084 0.09371,1.288466 0.05857,1.065913 0.05857,1.417313 h 0.04685 q 0.480247,-1.335319 0.855073,-1.874132 0.374827,-0.550527 0.890213,-0.80822 0.515387,-0.2694068 1.288466,-0.2694068 0.63252,0 1.01906,0.1756998 v 2.752633 q -0.796506,-0.1757 -1.405599,-0.1757 -1.2299,0 -1.920986,0.995633 -0.679374,0.995633 -0.679374,2.951759 v 6.219778 z M 38.71006,23.09772 q -2.881479,0 -4.451065,-1.710147 -1.569586,-1.721859 -1.569586,-4.790751 0,-3.139173 1.581299,-4.884459 1.5813,-1.7569994 4.486205,-1.7569994 2.237246,0 3.701413,1.1244794 1.464166,1.12448 1.838992,3.104033 l -3.314872,0.163986 q -0.14056,-0.972206 -0.7028,-1.546159 -0.56224,-0.585667 -1.593013,-0.585667 -2.541792,0 -2.541792,4.251939 0,4.380785 2.588646,4.380785 0.937066,0 1.569586,-0.585666 0.63252,-0.59738 0.784793,-1.768713 l 3.303159,0.152273 q -0.1757,1.30018 -0.937066,2.319239 -0.749654,1.01906 -1.979553,1.5813 -1.2299,0.550527 -2.764346,0.550527 z M 50.013421,12.719709 q 0.66766,-1.452452 1.675006,-2.108399 1.007346,-0.6559464 2.401233,-0.6559464 2.014692,0 3.092319,1.2416134 1.077626,1.241612 1.077626,3.631132 v 8.035344 h -3.279732 v -7.098278 q 0,-3.338299 -2.260673,-3.338299 -1.19476,0 -1.932699,1.030773 -0.726227,1.01906 -0.726227,2.623786 v 6.782018 H 46.768829 V 5.4808716 h 3.291445 V 10.22477 q 0,1.276753 -0.09371,2.494939 z"
       id="text1"
       aria-label="torch" /></g></svg>
