<?xml version="1.0" encoding="UTF-8" standalone="no"?>
<!-- Created with Inkscape (http://www.inkscape.org/) -->

<svg
   width="23.829672mm"
   height="52.63633mm"
   viewBox="0 0 23.829672 52.63633"
   version="1.1"
   id="svg5"
   xml:space="preserve"
   inkscape:version="1.4.3 (fcd0343856, 2026-01-01)"
   sodipodi:docname="logo-torch-blue-darkmode.svg"
   xmlns:inkscape="http://www.inkscape.org/namespaces/inkscape"
   xmlns:sodipodi="http://sodipodi.sourceforge.net/DTD/sodipodi-0.dtd"
   xmlns="http://www.w3.org/2000/svg"
   xmlns:svg="http://www.w3.org/2000/svg"><sodipodi:namedview
     id="namedview7"
     pagecolor="#ffffff"
     bordercolor="#000000"
     borderopacity="0.25"
     inkscape:showpageshadow="2"
     inkscape:pageopacity="0.0"
     inkscape:pagecheckerboard="0"
     inkscape:deskcolor="#d1d1d1"
     inkscape:document-units="mm"
     showgrid="false"
     inkscape:zoom="2.5069258"
     inkscape:cx="60.63203"
     inkscape:cy="88.15578"
     inkscape:window-width="1844"
     inkscape:window-height="1091"
     inkscape:window-x="716"
     inkscape:window-y="68"
     inkscape:window-maximized="0"
     inkscape:current-layer="layer1" /><defs
     id="defs2" /><g
     inkscape:label="Layer 1"
     inkscape:groupmode="layer"
     id="layer1"
     transform="translate(-19.74211,-210.87346)"><path
       style="fill:#ffffff;fill-opacity:1;stroke-width:2.02874;stroke-miterlimit:3.7"
       d="m 38.653009,249.83694 c 1.334093,-0.82709 2.827925,-1.8264 3.053145,-1.97132 1.880495,-1.16894 1.795153,-1.49638 1.714297,-4.65524 -1.794685,1.69649 -1.180908,1.61252 -2.550344,2.4548 -2.572256,1.58208 -1.895979,0.87694 -4.266544,2.67304 -1.526274,1.74916 -1.197663,2.60104 -1.209112,4.93286 1.919601,-2.50544 1.895451,-2.55386 3.258558,-3.43414 z"
       id="path11293"
       inkscape:export-filename="path2033.png"
       inkscape:export-xdpi="96"
       inkscape:export-ydpi="96"
       sodipodi:nodetypes="cccsccc" /><path
       style="fill:#ffffff;fill-opacity:1;stroke-width:2.02874;stroke-miterlimit:3.7"
       d="m 24.310661,254.81125 c -0.866953,-2.91957 -1.273749,-4.82896 -0.05095,-8.17155 1.94757,-3.96079 4.5919,-6.71876 9.78256,-10.20294 4.518769,-3.36932 7.648231,-6.31666 7.88015,-10.95923 0.346896,-3.83673 -1.759765,-7.47951 -4.23412,-10.00459 -1.54114,-1.53237 -5.31636,-4.71031 -5.4604,-4.5965 -0.0533,0.0421 0.28369,0.67324 0.74888,1.40249 4.805899,10.2663 6.044635,14.10611 -5.515138,21.94976 -6.625827,4.81581 -7.720762,7.28547 -7.719532,11.56584 8e-4,2.41162 0.47351,3.90166 1.95398,6.15784 1.05297,1.60468 2.84837,3.56784 2.61457,2.85888 z"
       id="path11295"
       sodipodi:nodetypes="cccccscccsc" /><path
       style="fill:#ffffff;fill-opacity:1;stroke-width:2.02874;stroke-miterlimit:3.7"
       d="m 30.47769,248.76161 c 0.7268,-1.26137 0.674543,-1.42197 5.229473,-4.95691 5.265761,-3.49578 7.51783,-3.6653 7.522278,-10.29674 -3.223626,4.79939 -5.871335,6.1515 -8.40225,7.5333 -4.75442,2.59633 -6.62687,4.64808 -6.92022,7.46321 -0.09381,2.20824 0.408456,3.9101 1.44639,5.67561 0.245966,-1.86719 0.381701,-4.11426 1.124329,-5.41847 z"
       id="path11297"
       sodipodi:nodetypes="ccccccc" /><ellipse
       style="fill:#ffffff;fill-opacity:1;stroke-width:2.64583;stroke-miterlimit:3.7"
       id="ellipse11299"
       cx="29.726757"
       cy="260.32684"
       rx="3.0061173"
       ry="3.1829476" /></g></svg>
